<?xml version="1.0" encoding="iso-8859-1"?>
<!-- Generator: Adobe Illustrator 19.0.0, SVG Export Plug-In . SVG Version: 6.00 Build 0)  -->
<svg version="1.1" id="Capa_1" xmlns="http://www.w3.org/2000/svg" xmlns:xlink="http://www.w3.org/1999/xlink" x="0px" y="0px"
	 viewBox="0 0 512 512" style="enable-background:new 0 0 512 512;" xml:space="preserve">
<rect x="106.69" y="80.34" style="fill:#54E3E3;" width="298.62" height="351.32"/>
<rect x="106.69" y="359.28" style="fill:#5E6E82;" width="170.21" height="72.38"/>
<rect x="106.69" y="286.49" style="fill:#0088BB;" width="170.21" height="72.79"/>
<rect x="106.69" y="213.7" style="fill:#5E6E82;" width="170.21" height="72.79"/>
<rect x="106.69" y="141.67" style="fill:#0088BB;" width="170.21" height="72.03"/>
<path style="fill:#B3B3B3;" d="M371.058,10H140.942c-18.915,0-34.248,15.334-34.248,34.248v36.09h298.612v-36.09
	C405.306,25.334,389.973,10,371.058,10z"/>
<path d="M317.084,55.17c-0.65,0-1.311-0.07-1.95-0.2c-0.64-0.12-1.271-0.32-1.87-0.57c-0.61-0.25-1.19-0.56-1.729-0.92
	c-0.551-0.359-1.061-0.779-1.521-1.239s-0.88-0.971-1.24-1.521c-0.37-0.54-0.67-1.12-0.92-1.729c-0.25-0.601-0.45-1.23-0.58-1.87
	c-0.12-0.641-0.189-1.301-0.189-1.95c0-0.65,0.069-1.311,0.189-1.95c0.13-0.64,0.33-1.27,0.58-1.88c0.25-0.6,0.55-1.18,0.91-1.72
	c0.37-0.551,0.79-1.061,1.25-1.521s0.97-0.88,1.521-1.25c0.539-0.35,1.119-0.66,1.729-0.91c0.6-0.25,1.23-0.449,1.87-0.569
	c1.29-0.261,2.61-0.261,3.9,0c0.64,0.12,1.27,0.319,1.869,0.569c0.61,0.25,1.19,0.561,1.73,0.91c0.55,0.37,1.06,0.79,1.52,1.25
	s0.881,0.97,1.24,1.521c0.36,0.54,0.67,1.12,0.92,1.72c0.25,0.61,0.45,1.24,0.57,1.88c0.13,0.64,0.2,1.3,0.2,1.95
	c0,0.649-0.07,1.31-0.2,1.95c-0.12,0.64-0.32,1.27-0.57,1.87c-0.25,0.609-0.56,1.189-0.92,1.729c-0.359,0.55-0.78,1.061-1.24,1.521
	s-0.97,0.88-1.52,1.239c-0.54,0.36-1.12,0.67-1.73,0.92c-0.6,0.25-1.229,0.45-1.869,0.57C318.393,55.1,317.733,55.17,317.084,55.17z
	"/>
<path d="M279.083,55.17h-84.167c-5.522,0-10-4.478-10-10s4.478-10,10-10h84.167c5.522,0,10,4.478,10,10S284.605,55.17,279.083,55.17
	z"/>
<path style="fill:#B3B3B3;" d="M140.942,502h230.116c18.915,0,34.248-15.334,34.248-34.248v-36.09H106.694v36.09
	C106.694,486.666,122.027,502,140.942,502z"/>
<path d="M269.178,476.83h-26.355c-5.522,0-10-4.478-10-10s4.478-10,10-10h26.355c5.522,0,10,4.478,10,10
	S274.7,476.83,269.178,476.83z"/>
<rect x="106.69" y="80.34" style="fill:#E3E3E3;" width="298.62" height="61.33"/>
<path d="M96.693,467.752c0,24.398,19.85,44.248,44.249,44.248h230.115c24.399,0,44.249-19.85,44.249-44.248l0,0
	c0.001-0.052,0,0.052,0,0V44.248l0,0c0-0.052,0.001,0.052,0,0l0,0C415.306,19.85,395.457,0,371.057,0H140.942
	c-24.399,0-44.249,19.85-44.249,44.248V467.752 M395.314,131.67L395.314,131.67H116.693V90.339h278.621V131.67z M116.693,296.49
	h150.206v52.792H116.693V296.49z M116.693,223.697h150.206v52.793H116.693V223.697z M266.899,203.697H116.693V151.67h150.206
	V203.697z M116.693,369.282h150.206v52.379H116.693V369.282z M286.899,421.661V151.67l0,0l0,0h108.415v269.991H286.899
	L286.899,421.661z M116.693,44.248c0-13.37,10.878-24.248,24.249-24.248h230.115c13.371,0,24.249,10.878,24.249,24.248v26.091
	H116.693V44.248z M395.306,467.752c0,13.37-10.878,24.248-24.249,24.248H140.942c-13.371,0-24.249-10.878-24.249-24.248v-26.091
	h160.206h118.407L395.306,467.752L395.306,467.752z"/>
<path d="M150.337,186.743h-13.333c-5.522,0-10-4.478-10-10s4.478-10,10-10h13.333c5.522,0,10,4.478,10,10
	S155.859,186.743,150.337,186.743z"/>
<path d="M150.337,260.094h-13.333c-5.522,0-10-4.478-10-10s4.478-10,10-10h13.333c5.522,0,10,4.478,10,10
	S155.859,260.094,150.337,260.094z"/>
<path d="M150.337,333.445h-13.333c-5.522,0-10-4.478-10-10s4.478-10,10-10h13.333c5.522,0,10,4.478,10,10
	S155.859,333.445,150.337,333.445z"/>
<path d="M150.337,406.796h-13.333c-5.522,0-10-4.478-10-10s4.478-10,10-10h13.333c5.522,0,10,4.478,10,10
	S155.859,406.796,150.337,406.796z"/>
<path d="M310.63,323.499c-2.56,0-5.118-0.977-7.071-2.929c-3.905-3.905-3.905-10.237,0-14.143l17.588-17.588l-17.588-17.588
	c-3.905-3.905-3.905-10.237,0-14.143c3.906-3.904,10.236-3.904,14.143,0l24.659,24.659c3.905,3.905,3.905,10.237,0,14.143
	l-24.659,24.659C315.748,322.522,313.189,323.499,310.63,323.499z"/>
<g>
</g>
<g>
</g>
<g>
</g>
<g>
</g>
<g>
</g>
<g>
</g>
<g>
</g>
<g>
</g>
<g>
</g>
<g>
</g>
<g>
</g>
<g>
</g>
<g>
</g>
<g>
</g>
<g>
</g>
</svg>
