<svg id="Capa_1" enable-background="new 0 0 512 512" height="512" viewBox="0 0 512 512" width="512" xmlns="http://www.w3.org/2000/svg"><g><g><path d="m457 76c-24.85 0-45 20.15-45 45v15h-252c0-28.055 0-47.532 0-51 0-41.42-33.58-75-75-75s-75 33.58-75 75v342c0 41.42 33.58 75 75 75h372c24.85 0 45-20.15 45-45v-336c0-24.85-20.15-45-45-45z" fill="#9bbeff"/><g fill="#eefaff"><path d="m502 121v336c0-24.85-20.15-45-45-45s-45 20.15-45 45c0-12.652 0-314.088 0-336 0-24.85 20.15-45 45-45s45 20.15 45 45z"/><path d="m85 10c-41.42 0-75 33.58-75 75v342c0-36.28 25.76-66.55 60-73.5v58.5c0 16.57 13.43 30 30 30h58.5c.98-4.84 1.5-9.86 1.5-15 0-18.422 0-327.142 0-342 0-41.42-33.58-75-75-75z"/></g></g><g><path d="m346 236c5.522 0 10-4.478 10-10v-30c0-5.522-4.478-10-10-10h-120c-5.522 0-10 4.478-10 10v240c0 5.522 4.478 10 10 10h120c5.522 0 10-4.478 10-10s-4.478-10-10-10h-110v-40h50c5.522 0 10-4.478 10-10s-4.478-10-10-10h-50v-40h100v50c0 5.522 4.478 10 10 10s10-4.478 10-10v-90c0-5.522-4.478-10-10-10s-10 4.478-10 10v20h-100v-100h40v50c0 5.522 4.478 10 10 10s10-4.478 10-10v-50h40v20c0 5.522 4.478 10 10 10z"/><circle cx="296" cy="502" r="10"/><path d="m457 66c-30.327 0-55 24.673-55 55v5h-232v-41c0-46.869-38.131-85-85-85s-85 38.131-85 85v342c0 46.869 38.131 85 85 85h165.999c5.522 0 10-4.478 10-10s-4.478-10-10-10h-111.341c19.023-15.977 30.342-39.446 30.342-65v-281h232v311c0 5.522 4.478 10 10 10s10-4.478 10-10c0-19.299 15.701-35 35-35s35 15.701 35 35-15.701 35-35 35h-115.999c-5.522 0-10 4.478-10 10s4.478 10 10 10h115.999c30.327 0 55-24.673 55-55v-336c0-30.327-24.673-55-55-55zm-372 426c-35.841 0-65-29.159-65-65 0-26.534 16.24-50.082 40-60.005v45.005c0 22.056 17.944 40 40 39.99h45.004c-9.924 23.771-33.471 40.01-60.004 40.01zm64.789-60h-49.789c-11.028 0-20-8.972-20-20v-49.789c1.663-.127 3.331-.211 5-.211 35.841 0 65 29.159 65 65 0 1.669-.084 3.337-.211 5zm.211-59.69c-15.605-18.517-38.946-30.31-65-30.31-25.547 0-49.019 11.314-65 30.342v-287.342c0-35.841 29.159-65 65-65s65 29.159 65 65zm342 42.294c-9.517-7.87-21.715-12.604-35-12.604s-25.483 4.733-35 12.604v-293.604c0-19.299 15.701-35 35-35s35 15.701 35 35z"/></g></g></svg>