<svg height="480pt" viewBox="-48 0 480 480.88002" width="480pt" xmlns="http://www.w3.org/2000/svg"><path d="m8.441406 480v-104c0-44.183594 35.816406-80 80-80h208c44.179688 0 80 35.816406 80 80v104" fill="#d6d9db"/><path d="m144.441406 208h96v88h-96zm0 0" fill="#fec9a3"/><path d="m224.441406 480-16-144 8-40h-48l8 40-16 144zm0 0" fill="#3e8cc7"/><path d="m256.441406 392h80v48h-80zm0 0" fill="#ffc24f"/><path d="m144.441406 200v57.703125c29.160156 19.0625 66.835938 19.0625 96 0v-57.703125zm0 0" fill="#f7bb8f"/><path d="m104.441406 56v104c0 48.601562 39.398438 88 88 88 48.601563 0 88-39.398438 88-88v-104zm0 0" fill="#fec9a3"/><path d="m280.441406 96h8c13.253906 0 24 10.746094 24 24s-10.746094 24-24 24h-8zm0 0" fill="#f7bb8f"/><path d="m104.441406 144h-8c-13.257812 0-24-10.746094-24-24s10.742188-24 24-24h8zm0 0" fill="#f7bb8f"/><g fill="#834a14"><path d="m232.441406 8h-128c-13.257812 0-24 10.746094-24 24s10.742188 24 24 24h136l40 40v-40c0-26.507812-21.492187-48-48-48zm0 0"/><path d="m160.441406 120c0 8.835938-7.164062 16-16 16-8.839844 0-16-7.164062-16-16s7.160156-16 16-16c8.835938 0 16 7.164062 16 16zm0 0"/><path d="m248.441406 120c0 8.835938-7.164062 16-16 16-8.839844 0-16-7.164062-16-16s7.160156-16 16-16c8.835938 0 16 7.164062 16 16zm0 0"/></g><path d="m256.441406 440h80v16h-80zm0 0" fill="#c7cacc"/><path d="m384.441406 480v-104c-.058594-48.578125-39.425781-87.941406-88-88h-48v-50.183594c25.082032-17.984375 39.972656-46.949218 40-77.816406v-8c17.671875 0 32-14.328125 32-32s-14.328125-32-32-32v-32c-.035156-30.914062-25.089844-55.9648438-56-56h-128c-16.09375-.0195312-29.691406 11.9375-31.722656 27.90625-2.03125 15.964844 8.136719 30.945312 23.722656 34.957031v25.136719c-17.675781 0-32 14.328125-32 32s14.324219 32 32 32v8c.027344 30.867188 14.914063 59.832031 40 77.816406v50.183594h-48c-48.578125.058594-87.945312 39.421875-88 88v104h16v-104c.046875-39.746094 32.253906-71.953125 72-72h73.4375l6.472656 32.351562-15.863281 142.769532 15.902344 1.757812 15.25-136.878906h17.597656l15.203125 136.878906 15.902344-1.757812-15.816406-142.769532 6.472656-32.351562h73.441406c39.742188.046875 71.949219 32.253906 72 72v104zm-96-376c8.835938 0 16 7.164062 16 16s-7.164062 16-16 16zm-192 32c-8.839844 0-16-7.164062-16-16s7.160156-16 16-16zm-8-104c0-8.835938 7.160156-16 16-16h128c22.078125.027344 39.972656 17.917969 40 40v20.6875l-26.34375-26.34375c-1.5-1.5-3.535156-2.34375-5.65625-2.34375h-136c-8.839844 0-16-7.164062-16-16zm24 128v-96h124.6875l35.3125 35.3125v60.6875c0 44.183594-35.820312 80-80 80-44.183594 0-80-35.816406-80-80zm89.4375 168h-18.878906l-4.800781-24h28.480469zm30.5625-40h-80v-40.800781c25.363282 11.789062 54.632813 11.789062 80 0zm0 0"/><path d="m160.441406 120c0 8.835938-7.164062 16-16 16-8.839844 0-16-7.164062-16-16s7.160156-16 16-16c8.835938 0 16 7.164062 16 16zm0 0"/><path d="m248.441406 120c0 8.835938-7.164062 16-16 16-8.839844 0-16-7.164062-16-16s7.160156-16 16-16c8.835938 0 16 7.164062 16 16zm0 0"/><path d="m288.441406 376v16h-32c-4.417968 0-8 3.582031-8 8v48c0 4.417969 3.582032 8 8 8h80c4.417969 0 8-3.582031 8-8v-48c0-4.417969-3.582031-8-8-8h-32v-16zm40 32v32h-64v-32zm0 0"/></svg>