<svg height="512" viewBox="0 0 64 64" width="512" xmlns="http://www.w3.org/2000/svg"><g id="Project-Innovation-Idea-Management-Control"><path d="m4 57v-50a3 3 0 0 1 3-3h31v5a3 3 0 0 0 3 3h5v20h2v-21a1 1 0 0 0 -.293-.707l-8-8a1 1 0 0 0 -.707-.293h-32a5.006 5.006 0 0 0 -5 5v50a5.006 5.006 0 0 0 5 5h31v-2h-31a3 3 0 0 1 -3-3zm36-48v-3.586l4.586 4.586h-3.586a1 1 0 0 1 -1-1z"/><path d="m33 20a8 8 0 0 0 -8.136-8 8.09 8.09 0 0 0 -7.858 7.705 8.006 8.006 0 0 0 2.386 5.99 5.17 5.17 0 0 1 1.569 3.305h-1.961v2h2v2a2 2 0 0 0 2 2h4a2 2 0 0 0 2-2v-2h2v-2h-1.963a4.979 4.979 0 0 1 1.5-3.231 7.915 7.915 0 0 0 2.463-5.769zm-10 13v-2h4v2zm4.01-4h-4.02a7.166 7.166 0 0 0 -2.2-4.731 5.923 5.923 0 0 1 -1.79-4.491 6 6 0 0 1 10.2-4.056 5.989 5.989 0 0 1 -.057 8.6 7.009 7.009 0 0 0 -2.133 4.678z"/><path d="m25 21a1 1 0 0 1 -1-1h-2a3 3 0 0 0 2 2.816v4.184h2v-4.184a3 3 0 0 0 2-2.816h-2a1 1 0 0 1 -1 1z"/><path d="m24 8h2v2h-2z"/><path d="m18.5 9.474h2v2h-2z" transform="matrix(.866 -.5 .5 .866 -2.624 11.151)"/><path d="m14.473 13.5h2v2h-2z" transform="matrix(.5 -.866 .866 .5 -4.82 20.652)"/><path d="m13 19h2v2h-2z"/><path d="m14.473 24.5h2v2h-2z" transform="matrix(.866 -.5 .5 .866 -10.676 11.151)"/><path d="m33.526 24.5h2v2h-2z" transform="matrix(.5 -.866 .866 .5 -4.819 42.654)"/><path d="m35 19h2v2h-2z"/><path d="m33.526 13.5h2v2h-2z" transform="matrix(.866 -.5 .5 .866 -2.625 19.202)"/><path d="m29.5 9.474h2v2h-2z" transform="matrix(.5 -.866 .866 .5 6.181 31.653)"/><path d="m61.142 45.01-2.682-.383a10.86 10.86 0 0 0 -.679-1.639l1.625-2.166a1 1 0 0 0 -.093-1.307l-2.828-2.828a1 1 0 0 0 -1.306-.093l-2.167 1.624a10.9 10.9 0 0 0 -1.639-.678l-.383-2.682a1 1 0 0 0 -.99-.858h-4a1 1 0 0 0 -.99.858l-.383 2.682a10.855 10.855 0 0 0 -1.639.678l-2.167-1.624a1 1 0 0 0 -1.306.093l-2.828 2.828a1 1 0 0 0 -.093 1.307l1.625 2.166a10.86 10.86 0 0 0 -.679 1.639l-2.682.383a1 1 0 0 0 -.858.99v4a1 1 0 0 0 .858.99l2.682.383a10.86 10.86 0 0 0 .679 1.639l-1.625 2.166a1 1 0 0 0 .093 1.307l2.828 2.828a1 1 0 0 0 1.306.093l2.167-1.624a10.855 10.855 0 0 0 1.639.678l.383 2.682a1 1 0 0 0 .99.858h4a1 1 0 0 0 .99-.858l.383-2.682a10.9 10.9 0 0 0 1.639-.678l2.167 1.624a1 1 0 0 0 1.306-.093l2.828-2.828a1 1 0 0 0 .093-1.307l-1.625-2.166a10.86 10.86 0 0 0 .679-1.639l2.682-.383a1 1 0 0 0 .858-.99v-4a1 1 0 0 0 -.858-.99zm-1.142 4.123-2.463.352a1 1 0 0 0 -.827.742 8.923 8.923 0 0 1 -.977 2.357 1 1 0 0 0 .061 1.111l1.492 1.99-1.6 1.6-1.991-1.492a1 1 0 0 0 -1.11-.06 8.859 8.859 0 0 1 -2.356.975 1 1 0 0 0 -.744.828l-.352 2.464h-2.266l-.351-2.463a1 1 0 0 0 -.744-.828 8.859 8.859 0 0 1 -2.356-.975 1 1 0 0 0 -1.11.06l-1.991 1.492-1.6-1.6 1.492-1.99a1 1 0 0 0 .061-1.111 8.923 8.923 0 0 1 -.977-2.357 1 1 0 0 0 -.827-.742l-2.464-.353v-2.266l2.463-.352a1 1 0 0 0 .827-.742 8.923 8.923 0 0 1 .977-2.357 1 1 0 0 0 -.061-1.111l-1.492-1.99 1.6-1.6 1.991 1.492a1 1 0 0 0 1.11.06 8.859 8.859 0 0 1 2.356-.975 1 1 0 0 0 .744-.828l.352-2.464h2.266l.351 2.463a1 1 0 0 0 .744.828 8.859 8.859 0 0 1 2.356.975 1 1 0 0 0 1.11-.06l1.991-1.492 1.6 1.6-1.492 1.99a1 1 0 0 0 -.061 1.111 8.923 8.923 0 0 1 .977 2.357 1 1 0 0 0 .827.742l2.464.353z"/><path d="m48 42a6 6 0 1 0 6 6 6.006 6.006 0 0 0 -6-6zm0 10a4 4 0 1 1 4-4 4 4 0 0 1 -4 4z"/><path d="m47 38h2v2h-2z"/><path d="m40.636 40.636h2v2h-2z" transform="matrix(.707 -.707 .707 .707 -17.246 41.626)"/><path d="m38 47h2v2h-2z"/><path d="m40.636 53.364h2v2h-2z" transform="matrix(.707 -.707 .707 .707 -26.246 45.364)"/><path d="m47 56h2v2h-2z"/><path d="m53.364 53.364h2v2h-2z" transform="matrix(.707 -.707 .707 .707 -22.518 54.351)"/><path d="m56 47h2v2h-2z"/><path d="m53.364 40.636h2v2h-2z" transform="matrix(.707 -.707 .707 .707 -13.517 50.648)"/><path d="m8 39h18v2h-18z"/><path d="m28 39h4v2h-4z"/><path d="m8 43h24v2h-24z"/><path d="m8 47h2v2h-2z"/><path d="m12 47h20v2h-20z"/><path d="m8 51h24v2h-24z"/></g></svg>